<mxfile host="app.diagrams.net" modified="2021-07-29T02:29:12.113Z" agent="5.0 (Macintosh; Intel Mac OS X 10_15_7) AppleWebKit/537.36 (KHTML, like Gecko) Chrome/86.0.4240.193 Safari/537.36" etag="oClhl4aHi2tlTMSrShjD" version="14.9.2" type="github">
  <diagram id="nX0n4faf8Z3fuyzRmp-g" name="Page-1">
    <mxGraphModel dx="946" dy="536" grid="1" gridSize="10" guides="1" tooltips="1" connect="1" arrows="1" fold="1" page="1" pageScale="1" pageWidth="827" pageHeight="1169" math="0" shadow="0">
      <root>
        <mxCell id="0" />
        <mxCell id="1" parent="0" />
        <mxCell id="wt_uJHzae25UJVQWE9GE-5" value="" style="rounded=0;whiteSpace=wrap;html=1;fillColor=#f5f5f5;strokeColor=#666666;fontColor=#333333;" vertex="1" parent="1">
          <mxGeometry x="130" y="170" width="200" height="200" as="geometry" />
        </mxCell>
        <mxCell id="wt_uJHzae25UJVQWE9GE-6" value="" style="rounded=0;whiteSpace=wrap;html=1;fillColor=#f5f5f5;strokeColor=#666666;fontColor=#333333;" vertex="1" parent="1">
          <mxGeometry x="385" y="170" width="200" height="200" as="geometry" />
        </mxCell>
        <mxCell id="wt_uJHzae25UJVQWE9GE-16" style="rounded=0;orthogonalLoop=1;jettySize=auto;html=1;exitX=0.5;exitY=1;exitDx=0;exitDy=0;entryX=0.5;entryY=0;entryDx=0;entryDy=0;" edge="1" parent="1" source="wt_uJHzae25UJVQWE9GE-8" target="wt_uJHzae25UJVQWE9GE-10">
          <mxGeometry relative="1" as="geometry" />
        </mxCell>
        <mxCell id="wt_uJHzae25UJVQWE9GE-8" value="GC ROOT" style="rounded=1;whiteSpace=wrap;html=1;fillColor=#dae8fc;strokeColor=#6c8ebf;" vertex="1" parent="1">
          <mxGeometry x="185" y="110" width="90" height="40" as="geometry" />
        </mxCell>
        <mxCell id="wt_uJHzae25UJVQWE9GE-21" style="edgeStyle=none;rounded=0;orthogonalLoop=1;jettySize=auto;html=1;exitX=0.5;exitY=0;exitDx=0;exitDy=0;entryX=0.5;entryY=1;entryDx=0;entryDy=0;" edge="1" parent="1" source="wt_uJHzae25UJVQWE9GE-9" target="wt_uJHzae25UJVQWE9GE-15">
          <mxGeometry relative="1" as="geometry" />
        </mxCell>
        <mxCell id="wt_uJHzae25UJVQWE9GE-9" value="&lt;span&gt;GC ROOT&lt;/span&gt;" style="rounded=1;whiteSpace=wrap;html=1;fillColor=#dae8fc;strokeColor=#6c8ebf;" vertex="1" parent="1">
          <mxGeometry x="440" y="400" width="90" height="40" as="geometry" />
        </mxCell>
        <mxCell id="wt_uJHzae25UJVQWE9GE-17" style="edgeStyle=none;rounded=0;orthogonalLoop=1;jettySize=auto;html=1;exitX=1;exitY=0.5;exitDx=0;exitDy=0;entryX=0;entryY=0.5;entryDx=0;entryDy=0;" edge="1" parent="1" source="wt_uJHzae25UJVQWE9GE-10" target="wt_uJHzae25UJVQWE9GE-11">
          <mxGeometry relative="1" as="geometry" />
        </mxCell>
        <mxCell id="wt_uJHzae25UJVQWE9GE-10" value="A" style="rounded=0;whiteSpace=wrap;html=1;fillColor=#fff2cc;strokeColor=#d6b656;" vertex="1" parent="1">
          <mxGeometry x="160" y="190" width="40" height="40" as="geometry" />
        </mxCell>
        <mxCell id="wt_uJHzae25UJVQWE9GE-18" style="edgeStyle=none;rounded=0;orthogonalLoop=1;jettySize=auto;html=1;exitX=1;exitY=0.5;exitDx=0;exitDy=0;entryX=0;entryY=0.5;entryDx=0;entryDy=0;" edge="1" parent="1" source="wt_uJHzae25UJVQWE9GE-11" target="wt_uJHzae25UJVQWE9GE-12">
          <mxGeometry relative="1" as="geometry" />
        </mxCell>
        <mxCell id="wt_uJHzae25UJVQWE9GE-11" value="B" style="rounded=0;whiteSpace=wrap;html=1;fillColor=#fff2cc;strokeColor=#d6b656;" vertex="1" parent="1">
          <mxGeometry x="260" y="190" width="40" height="40" as="geometry" />
        </mxCell>
        <mxCell id="wt_uJHzae25UJVQWE9GE-19" style="edgeStyle=none;rounded=0;orthogonalLoop=1;jettySize=auto;html=1;exitX=0;exitY=0.5;exitDx=0;exitDy=0;entryX=1;entryY=0.5;entryDx=0;entryDy=0;" edge="1" parent="1" source="wt_uJHzae25UJVQWE9GE-12" target="wt_uJHzae25UJVQWE9GE-13">
          <mxGeometry relative="1" as="geometry" />
        </mxCell>
        <mxCell id="wt_uJHzae25UJVQWE9GE-12" value="C" style="rounded=0;whiteSpace=wrap;html=1;fillColor=#fff2cc;strokeColor=#d6b656;" vertex="1" parent="1">
          <mxGeometry x="430" y="190" width="40" height="40" as="geometry" />
        </mxCell>
        <mxCell id="wt_uJHzae25UJVQWE9GE-13" value="D" style="rounded=0;whiteSpace=wrap;html=1;fillColor=#fff2cc;strokeColor=#d6b656;" vertex="1" parent="1">
          <mxGeometry x="260" y="250" width="40" height="40" as="geometry" />
        </mxCell>
        <mxCell id="wt_uJHzae25UJVQWE9GE-14" value="E" style="rounded=0;whiteSpace=wrap;html=1;fillColor=#fff2cc;strokeColor=#d6b656;" vertex="1" parent="1">
          <mxGeometry x="260" y="310" width="40" height="40" as="geometry" />
        </mxCell>
        <mxCell id="wt_uJHzae25UJVQWE9GE-20" style="edgeStyle=none;rounded=0;orthogonalLoop=1;jettySize=auto;html=1;exitX=0;exitY=0.5;exitDx=0;exitDy=0;entryX=1;entryY=0.5;entryDx=0;entryDy=0;" edge="1" parent="1" source="wt_uJHzae25UJVQWE9GE-15" target="wt_uJHzae25UJVQWE9GE-14">
          <mxGeometry relative="1" as="geometry" />
        </mxCell>
        <mxCell id="wt_uJHzae25UJVQWE9GE-15" value="F" style="rounded=0;whiteSpace=wrap;html=1;fillColor=#fff2cc;strokeColor=#d6b656;" vertex="1" parent="1">
          <mxGeometry x="430" y="310" width="40" height="40" as="geometry" />
        </mxCell>
        <mxCell id="wt_uJHzae25UJVQWE9GE-22" value="记忆集&lt;br&gt;C-&amp;gt;D&lt;br&gt;F-&amp;gt;E" style="shape=note;strokeWidth=2;fontSize=14;size=20;whiteSpace=wrap;html=1;fillColor=#fff2cc;strokeColor=#d6b656;fontColor=#666600;" vertex="1" parent="1">
          <mxGeometry x="620" y="220" width="110.00000000000001" height="80" as="geometry" />
        </mxCell>
        <mxCell id="wt_uJHzae25UJVQWE9GE-23" value="新生代" style="text;html=1;strokeColor=none;fillColor=none;align=center;verticalAlign=middle;whiteSpace=wrap;rounded=0;" vertex="1" parent="1">
          <mxGeometry x="210" y="390" width="40" height="20" as="geometry" />
        </mxCell>
        <mxCell id="wt_uJHzae25UJVQWE9GE-24" value="老年代" style="text;html=1;strokeColor=none;fillColor=none;align=center;verticalAlign=middle;whiteSpace=wrap;rounded=0;" vertex="1" parent="1">
          <mxGeometry x="465" y="120" width="40" height="20" as="geometry" />
        </mxCell>
      </root>
    </mxGraphModel>
  </diagram>
</mxfile>
